<svg xmlns="http://www.w3.org/2000/svg" width="540" height="1080" viewBox="0 0 540 1080" role="img" aria-labelledby="title desc">
  <title id="title">Client Home Screenshot Placeholder</title>
  <desc id="desc">Placeholder of GuardianStar Client home screen.</desc>
  <defs>
    <linearGradient id="bg" x1="0%" y1="0%" x2="0%" y2="100%">
      <stop offset="0%" stop-color="#e9f6ff"/>
      <stop offset="100%" stop-color="#f7fbff"/>
    </linearGradient>
    <linearGradient id="top" x1="0%" y1="0%" x2="100%" y2="100%">
      <stop offset="0%" stop-color="#0e3f69"/>
      <stop offset="100%" stop-color="#17639a"/>
    </linearGradient>
  </defs>

  <rect width="540" height="1080" fill="#d8e6f2"/>
  <rect x="20" y="20" width="500" height="1040" rx="52" fill="url(#bg)" stroke="#3f5f80" stroke-width="5"/>
  <rect x="190" y="44" width="160" height="20" rx="10" fill="#31506f"/>

  <rect x="44" y="92" width="452" height="212" rx="28" fill="url(#top)"/>
  <text x="74" y="162" fill="#ffffff" font-family="Segoe UI, Arial, sans-serif" font-size="38" font-weight="700">GuardianStar</text>
  <text x="74" y="206" fill="#d2e8ff" font-family="Segoe UI, Arial, sans-serif" font-size="24">Client Device</text>
  <text x="74" y="250" fill="#d2e8ff" font-family="Segoe UI, Arial, sans-serif" font-size="24">Tracking: Active</text>

  <rect x="44" y="336" width="452" height="164" rx="20" fill="#ffffff" stroke="#c2d9ed"/>
  <text x="70" y="386" fill="#18324a" font-family="Segoe UI, Arial, sans-serif" font-size="28" font-weight="600">Current Location</text>
  <text x="70" y="426" fill="#54718d" font-family="Segoe UI, Arial, sans-serif" font-size="22">Latitude: 1.3021</text>
  <text x="70" y="458" fill="#54718d" font-family="Segoe UI, Arial, sans-serif" font-size="22">Longitude: 103.8198</text>

  <rect x="44" y="526" width="452" height="208" rx="20" fill="#ffffff" stroke="#c2d9ed"/>
  <text x="70" y="576" fill="#18324a" font-family="Segoe UI, Arial, sans-serif" font-size="28" font-weight="600">Safe Zone</text>
  <rect x="70" y="604" width="180" height="44" rx="22" fill="#c3f3da"/>
  <text x="96" y="634" fill="#0c6d39" font-family="Segoe UI, Arial, sans-serif" font-size="22">Synced</text>
  <text x="70" y="680" fill="#54718d" font-family="Segoe UI, Arial, sans-serif" font-size="22">Radius: 120m</text>
  <text x="70" y="712" fill="#54718d" font-family="Segoe UI, Arial, sans-serif" font-size="22">Last Update: 10:22</text>

  <rect x="44" y="760" width="452" height="132" rx="20" fill="#ffffff" stroke="#c2d9ed"/>
  <text x="70" y="812" fill="#18324a" font-family="Segoe UI, Arial, sans-serif" font-size="28" font-weight="600">Server Config</text>
  <text x="70" y="850" fill="#54718d" font-family="Segoe UI, Arial, sans-serif" font-size="22">http://10.0.2.2:8080/</text>

  <rect x="44" y="922" width="452" height="100" rx="18" fill="#0f4f81"/>
  <text x="173" y="982" fill="#ffffff" font-family="Segoe UI, Arial, sans-serif" font-size="28" font-weight="600">Stop Tracking</text>
</svg>
