<svg xmlns="http://www.w3.org/2000/svg" width="540" height="1080" viewBox="0 0 540 1080" role="img" aria-labelledby="title desc">
  <title id="title">Client Settings Screenshot Placeholder</title>
  <desc id="desc">Placeholder of GuardianStar Client settings screen.</desc>
  <defs>
    <linearGradient id="bg" x1="0%" y1="0%" x2="0%" y2="100%">
      <stop offset="0%" stop-color="#f0f8ff"/>
      <stop offset="100%" stop-color="#fbfdff"/>
    </linearGradient>
  </defs>

  <rect width="540" height="1080" fill="#d8e6f2"/>
  <rect x="20" y="20" width="500" height="1040" rx="52" fill="url(#bg)" stroke="#3f5f80" stroke-width="5"/>
  <rect x="190" y="44" width="160" height="20" rx="10" fill="#31506f"/>

  <rect x="44" y="92" width="452" height="134" rx="24" fill="#134066"/>
  <text x="70" y="150" fill="#ffffff" font-family="Segoe UI, Arial, sans-serif" font-size="36" font-weight="700">Profile</text>
  <text x="70" y="190" fill="#d6e9fb" font-family="Segoe UI, Arial, sans-serif" font-size="23">Server & Permissions</text>

  <rect x="44" y="252" width="452" height="194" rx="20" fill="#ffffff" stroke="#c2d9ed"/>
  <text x="70" y="304" fill="#18324a" font-family="Segoe UI, Arial, sans-serif" font-size="27" font-weight="600">Backend Address</text>
  <rect x="70" y="326" width="400" height="52" rx="12" fill="#f2f8fe" stroke="#b9d3ea"/>
  <text x="84" y="360" fill="#4b6884" font-family="Consolas, monospace" font-size="20">http://192.168.1.33:8080/</text>
  <rect x="70" y="392" width="148" height="38" rx="19" fill="#0f5d94"/>
  <text x="98" y="417" fill="#ffffff" font-family="Segoe UI, Arial, sans-serif" font-size="20">Save</text>

  <rect x="44" y="474" width="452" height="286" rx="20" fill="#ffffff" stroke="#c2d9ed"/>
  <text x="70" y="526" fill="#18324a" font-family="Segoe UI, Arial, sans-serif" font-size="27" font-weight="600">Permissions</text>

  <rect x="70" y="548" width="400" height="54" rx="12" fill="#f4f9ff"/>
  <text x="84" y="582" fill="#4b6884" font-family="Segoe UI, Arial, sans-serif" font-size="22">Fine Location</text>
  <rect x="386" y="560" width="70" height="30" rx="15" fill="#bdeccd"/>
  <circle cx="440" cy="575" r="11" fill="#12874c"/>

  <rect x="70" y="614" width="400" height="54" rx="12" fill="#f4f9ff"/>
  <text x="84" y="648" fill="#4b6884" font-family="Segoe UI, Arial, sans-serif" font-size="22">Background Location</text>
  <rect x="386" y="626" width="70" height="30" rx="15" fill="#bdeccd"/>
  <circle cx="440" cy="641" r="11" fill="#12874c"/>

  <rect x="70" y="680" width="400" height="54" rx="12" fill="#f4f9ff"/>
  <text x="84" y="714" fill="#4b6884" font-family="Segoe UI, Arial, sans-serif" font-size="22">Notifications</text>
  <rect x="386" y="692" width="70" height="30" rx="15" fill="#bdeccd"/>
  <circle cx="440" cy="707" r="11" fill="#12874c"/>

  <rect x="44" y="786" width="452" height="236" rx="20" fill="#ffffff" stroke="#c2d9ed"/>
  <text x="70" y="838" fill="#18324a" font-family="Segoe UI, Arial, sans-serif" font-size="27" font-weight="600">Device Identity</text>
  <text x="70" y="878" fill="#4b6884" font-family="Consolas, monospace" font-size="21">device-5f29c8ab</text>
  <rect x="70" y="900" width="168" height="40" rx="20" fill="#e2f1ff"/>
  <text x="94" y="926" fill="#14527e" font-family="Segoe UI, Arial, sans-serif" font-size="20">Copy ID</text>
</svg>
