<svg xmlns="http://www.w3.org/2000/svg" width="540" height="1080" viewBox="0 0 540 1080" role="img" aria-labelledby="title desc">
  <title id="title">Monitor Safe Zone Screenshot Placeholder</title>
  <desc id="desc">Placeholder of GuardianStar Monitor safe-zone editor.</desc>
  <defs>
    <linearGradient id="bg" x1="0%" y1="0%" x2="0%" y2="100%">
      <stop offset="0%" stop-color="#f5fbff"/>
      <stop offset="100%" stop-color="#fcfeff"/>
    </linearGradient>
  </defs>

  <rect width="540" height="1080" fill="#d8e7f0"/>
  <rect x="20" y="20" width="500" height="1040" rx="52" fill="url(#bg)" stroke="#3f5f80" stroke-width="5"/>
  <rect x="190" y="44" width="160" height="20" rx="10" fill="#31506f"/>

  <rect x="44" y="92" width="452" height="164" rx="24" fill="#173f5f"/>
  <text x="70" y="152" fill="#ffffff" font-family="Segoe UI, Arial, sans-serif" font-size="35" font-weight="700">Safe Zone Manager</text>
  <text x="70" y="196" fill="#d7e9fb" font-family="Segoe UI, Arial, sans-serif" font-size="23">Selected: A-Child</text>
  <text x="70" y="228" fill="#d7e9fb" font-family="Segoe UI, Arial, sans-serif" font-size="23">Status: Active</text>

  <rect x="44" y="284" width="452" height="338" rx="20" fill="#ffffff" stroke="#c2d9ed"/>
  <text x="70" y="336" fill="#18324a" font-family="Segoe UI, Arial, sans-serif" font-size="27" font-weight="600">Geofence Center</text>
  <rect x="70" y="360" width="400" height="236" rx="14" fill="#eef7ff" stroke="#bfd9ef"/>
  <circle cx="270" cy="478" r="16" fill="#16588a"/>
  <circle cx="270" cy="478" r="88" fill="#58a9e8" opacity="0.26"/>
  <circle cx="270" cy="478" r="124" fill="none" stroke="#2b8bd6" stroke-width="4" stroke-dasharray="10,8"/>

  <rect x="44" y="648" width="452" height="222" rx="20" fill="#ffffff" stroke="#c2d9ed"/>
  <text x="70" y="700" fill="#18324a" font-family="Segoe UI, Arial, sans-serif" font-size="27" font-weight="600">Safe Zone Config</text>
  <text x="70" y="738" fill="#4b6884" font-family="Segoe UI, Arial, sans-serif" font-size="22">Latitude: 1.30025</text>
  <text x="70" y="770" fill="#4b6884" font-family="Segoe UI, Arial, sans-serif" font-size="22">Longitude: 103.81090</text>
  <text x="70" y="802" fill="#4b6884" font-family="Segoe UI, Arial, sans-serif" font-size="22">Radius: 120m</text>
  <rect x="310" y="726" width="160" height="44" rx="22" fill="#e2f1ff"/>
  <text x="346" y="754" fill="#14527e" font-family="Segoe UI, Arial, sans-serif" font-size="20">Edit</text>

  <rect x="44" y="894" width="216" height="128" rx="18" fill="#1463a0"/>
  <text x="86" y="972" fill="#ffffff" font-family="Segoe UI, Arial, sans-serif" font-size="26" font-weight="600">Save Zone</text>

  <rect x="280" y="894" width="216" height="128" rx="18" fill="#ffffff" stroke="#c2d9ed"/>
  <text x="312" y="972" fill="#8c3840" font-family="Segoe UI, Arial, sans-serif" font-size="26" font-weight="600">Remove</text>
</svg>
