<svg xmlns="http://www.w3.org/2000/svg" width="540" height="1080" viewBox="0 0 540 1080" role="img" aria-labelledby="title desc">
  <title id="title">Monitor Overview Screenshot Placeholder</title>
  <desc id="desc">Placeholder of GuardianStar Monitor overview screen.</desc>
  <defs>
    <linearGradient id="bg" x1="0%" y1="0%" x2="0%" y2="100%">
      <stop offset="0%" stop-color="#f4fbf8"/>
      <stop offset="100%" stop-color="#fcfffd"/>
    </linearGradient>
  </defs>

  <rect width="540" height="1080" fill="#d6eadf"/>
  <rect x="20" y="20" width="500" height="1040" rx="52" fill="url(#bg)" stroke="#45685a" stroke-width="5"/>
  <rect x="190" y="44" width="160" height="20" rx="10" fill="#355648"/>

  <rect x="44" y="92" width="452" height="164" rx="24" fill="#104533"/>
  <text x="70" y="152" fill="#ffffff" font-family="Segoe UI, Arial, sans-serif" font-size="36" font-weight="700">Guardian Monitor</text>
  <text x="70" y="196" fill="#d3f2e2" font-family="Segoe UI, Arial, sans-serif" font-size="23">Multi-device dashboard</text>
  <text x="70" y="228" fill="#d3f2e2" font-family="Segoe UI, Arial, sans-serif" font-size="23">2 devices online</text>

  <rect x="44" y="284" width="452" height="96" rx="18" fill="#ffffff" stroke="#bfdccc"/>
  <rect x="62" y="306" width="140" height="52" rx="26" fill="#b8efd1"/>
  <text x="94" y="339" fill="#0d6d3c" font-family="Segoe UI, Arial, sans-serif" font-size="21">A-Child</text>
  <rect x="216" y="306" width="140" height="52" rx="26" fill="#e6f3ea"/>
  <text x="247" y="339" fill="#4d7160" font-family="Segoe UI, Arial, sans-serif" font-size="21">B-Child</text>
  <rect x="370" y="306" width="108" height="52" rx="26" fill="#f1f8f4"/>
  <text x="398" y="339" fill="#4d7160" font-family="Segoe UI, Arial, sans-serif" font-size="21">All</text>

  <rect x="44" y="406" width="452" height="348" rx="20" fill="#ffffff" stroke="#bfdccc"/>
  <text x="70" y="458" fill="#173a2d" font-family="Segoe UI, Arial, sans-serif" font-size="27" font-weight="600">Live Map</text>
  <rect x="70" y="482" width="400" height="246" rx="14" fill="#eaf8ef" stroke="#b8e2c8"/>
  <circle cx="270" cy="600" r="12" fill="#177a48"/>
  <circle cx="270" cy="600" r="44" fill="#4ecf84" opacity="0.3"/>
  <path d="M 120 670 Q 190 590 270 600 Q 340 610 420 540" stroke="#2f9d61" stroke-width="5" fill="none"/>

  <rect x="44" y="780" width="452" height="116" rx="20" fill="#ffffff" stroke="#bfdccc"/>
  <text x="70" y="832" fill="#173a2d" font-family="Segoe UI, Arial, sans-serif" font-size="27" font-weight="600">Latest Alert</text>
  <text x="70" y="870" fill="#4d7160" font-family="Segoe UI, Arial, sans-serif" font-size="22">No active geofence alerts</text>

  <rect x="44" y="922" width="452" height="100" rx="18" fill="#17673f"/>
  <text x="172" y="982" fill="#ffffff" font-family="Segoe UI, Arial, sans-serif" font-size="28" font-weight="600">Refresh Data</text>
</svg>
